<svg xmlns="http://www.w3.org/2000/svg" viewBox="0 0 433 180">
  <defs>
    <clipPath id="r"><rect x="3" y="3" width="427" height="174" rx="16"/></clipPath>
    <linearGradient id="sky" x1="0" y1="0" x2="0" y2="1"><stop offset="0" stop-color="#cdeaa6"/><stop offset="1" stop-color="#8fd05a"/></linearGradient>
  </defs>
  <g clip-path="url(#r)">
    <rect width="433" height="180" fill="url(#sky)"/>
    <circle cx="378" cy="118" r="20" fill="#ffe488" opacity="0.9"/>
    <path d="M0 150 Q120 112 240 146 T433 136 V180 H0 Z" fill="#57a637"/>
    <path d="M0 166 Q150 138 300 166 T433 160 V180 H0 Z" fill="#3f8128"/>
    <rect x="0" y="0" width="433" height="72" fill="#4e9a34"/>
    <path d="M42 16 l8 20 21 3 -15 15 4 21 -18 -10 -18 10 4 -21 -15 -15 21 -3 z" fill="#ffd95a" stroke="#2f2110" stroke-width="3" stroke-linejoin="round"/>
  </g>
  <rect x="3" y="3" width="427" height="174" rx="16" fill="none" stroke="#2f2110" stroke-width="5"/>
</svg>
