<svg xmlns="http://www.w3.org/2000/svg" viewBox="0 0 433 180">
  <defs>
    <clipPath id="r2"><rect x="3" y="3" width="427" height="174" rx="16"/></clipPath>
    <linearGradient id="sky2" x1="0" y1="0" x2="0" y2="1"><stop offset="0" stop-color="#cdeaa6"/><stop offset="1" stop-color="#8fd05a"/></linearGradient>
  </defs>
  <g clip-path="url(#r2)">
    <rect width="433" height="180" fill="url(#sky2)"/>
    <circle cx="378" cy="118" r="20" fill="#ffe488" opacity="0.9"/>
    <path d="M0 150 Q120 112 240 146 T433 136 V180 H0 Z" fill="#57a637"/>
    <path d="M0 166 Q150 138 300 166 T433 160 V180 H0 Z" fill="#3f8128"/>
    <rect x="0" y="0" width="433" height="72" fill="#8a5a34"/>
    <g stroke="#2f2110" stroke-width="2">
      <rect x="26" y="18" width="13" height="13" fill="#ffd95a"/><rect x="39" y="18" width="13" height="13" fill="#c98a3c"/><rect x="52" y="18" width="13" height="13" fill="#ffd95a"/>
      <rect x="26" y="31" width="13" height="13" fill="#c98a3c"/><rect x="39" y="31" width="13" height="13" fill="#ffd95a"/><rect x="52" y="31" width="13" height="13" fill="#c98a3c"/>
      <rect x="26" y="44" width="13" height="13" fill="#ffd95a"/><rect x="39" y="44" width="13" height="13" fill="#c98a3c"/><rect x="52" y="44" width="13" height="13" fill="#ffd95a"/>
    </g>
  </g>
  <rect x="3" y="3" width="427" height="174" rx="16" fill="none" stroke="#2f2110" stroke-width="5"/>
</svg>
