<svg width="51" height="53" viewBox="0 0 51 53" fill="none" xmlns="http://www.w3.org/2000/svg">
<g opacity="0.5" filter="url(#filter0_f_2086_24803)">
<path fill-rule="evenodd" clip-rule="evenodd" d="M18.8885 9.31124C19.7297 6.70803 22.1732 4.8252 25.0565 4.8252C27.9128 4.8252 30.3375 6.67302 31.2005 9.23847C37.5625 11.2251 42.5759 16.2664 44.5239 22.6454C47.1415 23.4781 49.0378 25.9288 49.0378 28.8223C49.0378 31.7826 47.053 34.2794 44.3415 35.0543C42.2837 41.141 37.4102 45.9302 31.2711 47.8722C30.3777 50.3824 27.9806 52.1794 25.1638 52.1794C22.3484 52.1794 19.9523 50.3841 19.0578 47.8759C12.943 45.9458 8.08229 41.1914 6.00589 35.143C3.11909 34.4887 0.963867 31.9073 0.963867 28.8225C0.963867 25.8029 3.029 23.2656 5.82395 22.546C7.76972 16.2904 12.6678 11.3355 18.8885 9.31124Z" fill="black"/>
</g>
<path fill-rule="evenodd" clip-rule="evenodd" d="M25.1009 1.2002C22.2892 1.2002 19.8938 2.98233 18.9825 5.47863C12.577 7.48181 7.5244 12.5472 5.53899 18.9605C3.0111 19.855 1.2002 22.2663 1.2002 25.1006C1.2002 27.9553 3.03728 30.3809 5.59371 31.2597C7.60959 37.5704 12.6029 42.5506 18.9216 44.5485C19.7831 47.1358 22.2241 49.0015 25.1009 49.0015C27.9777 49.0015 30.4187 47.1358 31.2802 44.5485C37.5987 42.5507 42.5919 37.5707 44.6079 31.2603C47.1644 30.3815 49.0016 27.9558 49.0016 25.1011C49.0016 22.2669 47.1908 19.8556 44.663 18.9611C42.6777 12.5475 37.625 7.48187 31.2193 5.47863C30.308 2.98233 27.9126 1.2002 25.1009 1.2002Z" fill="#01D301"/>
<path fill-rule="evenodd" clip-rule="evenodd" d="M18.0835 4.51009C19.2988 1.8505 21.9823 0 25.1007 0C28.2191 0 30.9026 1.8505 32.1178 4.51009C38.4612 6.6795 43.4766 11.7061 45.6309 18.0565C48.3229 19.2585 50.2014 21.959 50.2014 25.1009C50.2014 28.2674 48.2936 30.9855 45.5676 32.1733C43.389 38.4099 38.4426 43.3449 32.1987 45.5081C31.0246 48.2659 28.29 50.2014 25.1007 50.2014C21.9113 50.2014 19.1768 48.2659 18.0027 45.5081C11.7586 43.3449 6.81214 38.4096 4.63361 32.1727C1.90774 30.9848 0 28.2668 0 25.1005C0 21.9585 1.87855 19.2579 4.57073 18.0559C6.72505 11.7058 11.7404 6.67943 18.0835 4.51009ZM18.9823 5.47845C19.8936 2.98213 22.289 1.2 25.1007 1.2C27.9124 1.2 30.3078 2.98214 31.2191 5.47845C37.6248 7.48169 42.6775 12.5473 44.6628 18.9609C47.1906 19.8554 49.0014 22.2667 49.0014 25.1009C49.0014 27.9557 47.1642 30.3814 44.6077 31.2601C42.5917 37.5706 37.5985 42.5506 31.28 44.5484C30.4185 47.1358 27.9775 49.0014 25.1007 49.0014C22.2239 49.0014 19.7829 47.1358 18.9214 44.5484C12.6027 42.5506 7.6094 37.5703 5.59352 31.2596C3.03708 30.3808 1.2 27.9551 1.2 25.1005C1.2 22.2662 3.01091 19.8548 5.5388 18.9604C7.5242 12.547 12.5768 7.48163 18.9823 5.47845Z" fill="black"/>
<mask id="mask0_2086_24803" style="mask-type:alpha" maskUnits="userSpaceOnUse" x="1" y="1" width="49" height="48">
<path d="M31.3197 6.00435C37.4861 7.97242 42.3685 12.8153 44.3911 18.9572C47.179 19.6816 49.2374 22.2155 49.2374 25.2301C49.2374 28.2283 47.2015 30.7509 44.4368 31.491C42.4376 37.716 37.5071 42.6274 31.2704 44.6002C30.3769 47.1104 27.9799 48.9074 25.163 48.9074C22.3476 48.9074 19.9515 47.1122 19.057 44.6039C12.785 42.6241 7.83222 37.6728 5.85041 31.4016C3.24159 30.5637 1.35352 28.1174 1.35352 25.2301C1.35352 22.326 3.26373 19.868 5.89624 19.0441C7.90247 12.8572 12.8067 7.97559 19.0076 6.00065C19.8605 3.41746 22.2941 1.55322 25.163 1.55322C28.0334 1.55322 30.4679 3.41924 31.3197 6.00435Z" fill="#03D302"/>
</mask>
<g mask="url(#mask0_2086_24803)">
<path d="M13.4639 32.2766L5.53613 36.8068L11.2265 49.8009H38.2048L47.1165 33.4631L37.0815 30.2344L13.4639 32.2766Z" fill="#029802"/>
</g>
<g filter="url(#filter1_di_2086_24803)">
<path d="M37.9485 24.1393C37.9485 31.4722 32.004 37.4167 24.671 37.4167C17.3381 37.4167 11.3936 31.4722 11.3936 24.1393C11.3936 16.8063 17.3381 10.8618 24.671 10.8618C32.004 10.8618 37.9485 16.8063 37.9485 24.1393Z" fill="#034502"/>
</g>
<path d="M23.8836 5.36304C22.6716 6.10774 21.302 6.0814 20.8244 5.30422C20.3469 4.52703 20.9422 3.29329 22.1542 2.54859C23.3661 1.80389 24.7358 1.83023 25.2133 2.60742C25.6909 3.38461 25.0955 4.61834 23.8836 5.36304Z" fill="white"/>
<path opacity="0.9" d="M5.40506 23.668C4.27412 24.5308 2.9088 24.6423 2.35552 23.9171C1.80225 23.1918 2.27054 21.9045 3.40147 21.0417C4.53241 20.1789 5.89774 20.0674 6.45101 20.7926C7.00429 21.5179 6.536 22.8052 5.40506 23.668Z" fill="white"/>
<defs>
<filter id="filter0_f_2086_24803" x="0.363867" y="4.2252" width="49.2742" height="48.554" filterUnits="userSpaceOnUse" color-interpolation-filters="sRGB">
<feFlood flood-opacity="0" result="BackgroundImageFix"/>
<feBlend mode="normal" in="SourceGraphic" in2="BackgroundImageFix" result="shape"/>
<feGaussianBlur stdDeviation="0.3" result="effect1_foregroundBlur_2086_24803"/>
</filter>
<filter id="filter1_di_2086_24803" x="11.3936" y="10.8618" width="26.5547" height="28.0552" filterUnits="userSpaceOnUse" color-interpolation-filters="sRGB">
<feFlood flood-opacity="0" result="BackgroundImageFix"/>
<feColorMatrix in="SourceAlpha" type="matrix" values="0 0 0 0 0 0 0 0 0 0 0 0 0 0 0 0 0 0 127 0" result="hardAlpha"/>
<feOffset dy="1.5"/>
<feComposite in2="hardAlpha" operator="out"/>
<feColorMatrix type="matrix" values="0 0 0 0 0.164706 0 0 0 0 1 0 0 0 0 0.141176 0 0 0 1 0"/>
<feBlend mode="normal" in2="BackgroundImageFix" result="effect1_dropShadow_2086_24803"/>
<feBlend mode="normal" in="SourceGraphic" in2="effect1_dropShadow_2086_24803" result="shape"/>
<feColorMatrix in="SourceAlpha" type="matrix" values="0 0 0 0 0 0 0 0 0 0 0 0 0 0 0 0 0 0 127 0" result="hardAlpha"/>
<feOffset dy="1"/>
<feGaussianBlur stdDeviation="0.4"/>
<feComposite in2="hardAlpha" operator="arithmetic" k2="-1" k3="1"/>
<feColorMatrix type="matrix" values="0 0 0 0 0 0 0 0 0 0 0 0 0 0 0 0 0 0 0.7 0"/>
<feBlend mode="normal" in2="shape" result="effect2_innerShadow_2086_24803"/>
</filter>
</defs>
</svg>
