<svg width="51" height="51" viewBox="0 0 51 51" fill="none" xmlns="http://www.w3.org/2000/svg">
<mask id="path-1-outside-1_2086_25013" maskUnits="userSpaceOnUse" x="-0.799805" y="-0.799805" width="52" height="52" fill="black">
<rect fill="white" x="-0.799805" y="-0.799805" width="52" height="52"/>
<path d="M25.1006 1.2002C27.9122 1.2002 30.3074 2.98235 31.2188 5.47852C37.6249 7.48169 42.6769 12.5479 44.6621 18.9619C47.1902 19.8563 49.002 22.2671 49.002 25.1016C49.0018 27.9568 47.1628 30.3805 44.6055 31.2588C42.5894 37.5703 37.5972 42.5505 31.2773 44.5479C30.4159 47.1351 27.9773 49.002 25.1006 49.002C22.2238 49.0018 19.7842 47.1353 18.9229 44.5479C12.6031 42.55 7.60936 37.5696 5.59375 31.2578C3.03761 30.3788 1.2002 27.9551 1.2002 25.1006C1.20022 22.2668 3.01085 19.8567 5.53809 18.9619C7.52305 12.5482 12.576 7.48309 18.9814 5.47949C19.8924 2.98269 22.2886 1.20032 25.1006 1.2002Z"/>
</mask>
<g filter="url(#filter0_i_2086_25013)">
<path d="M25.1006 1.2002C27.9122 1.2002 30.3074 2.98235 31.2188 5.47852C37.6249 7.48169 42.6769 12.5479 44.6621 18.9619C47.1902 19.8563 49.002 22.2671 49.002 25.1016C49.0018 27.9568 47.1628 30.3805 44.6055 31.2588C42.5894 37.5703 37.5972 42.5505 31.2773 44.5479C30.4159 47.1351 27.9773 49.002 25.1006 49.002C22.2238 49.0018 19.7842 47.1353 18.9229 44.5479C12.6031 42.55 7.60936 37.5696 5.59375 31.2578C3.03761 30.3788 1.2002 27.9551 1.2002 25.1006C1.20022 22.2668 3.01085 19.8567 5.53809 18.9619C7.52305 12.5482 12.576 7.48309 18.9814 5.47949C19.8924 2.98269 22.2886 1.20032 25.1006 1.2002Z" fill="#322E56"/>
</g>
<path d="M25.1006 1.2002L25.1006 0.000195264L25.1005 0.000195266L25.1006 1.2002ZM31.2188 5.47852L30.0915 5.89005L30.2948 6.44691L30.8606 6.62383L31.2188 5.47852ZM44.6621 18.9619L43.5158 19.3167L43.6939 19.8923L44.2619 20.0932L44.6621 18.9619ZM49.002 25.1016L50.202 25.1016L50.202 25.1016L49.002 25.1016ZM44.6055 31.2588L44.2157 30.1239L43.6457 30.3196L43.4624 30.8936L44.6055 31.2588ZM31.2773 44.5479L30.9157 43.4036L30.3321 43.5881L30.1388 44.1688L31.2773 44.5479ZM25.1006 49.002L25.1005 50.202H25.1006V49.002ZM18.9229 44.5479L20.0614 44.1688L19.8681 43.5881L19.2846 43.4037L18.9229 44.5479ZM5.59375 31.2578L6.73688 30.8928L6.55363 30.3189L5.98397 30.123L5.59375 31.2578ZM1.2002 25.1006L0.000195265 25.1006L0.000195265 25.1006L1.2002 25.1006ZM5.53809 18.9619L5.93859 20.0931L6.50637 19.8921L6.68444 19.3167L5.53809 18.9619ZM18.9814 5.47949L19.3397 6.62477L19.9056 6.44777L20.1088 5.89077L18.9814 5.47949ZM25.1006 1.2002V2.4002C27.3921 2.4002 29.3475 3.85209 30.0915 5.89005L31.2188 5.47852L32.346 5.06698C31.2674 2.11261 28.4323 0.000195265 25.1006 0.000195265V1.2002ZM31.2188 5.47852L30.8606 6.62383C36.89 8.50919 41.6472 13.2798 43.5158 19.3167L44.6621 18.9619L45.8085 18.6071C43.7065 11.816 38.3598 6.4542 31.5769 4.3332L31.2188 5.47852ZM44.6621 18.9619L44.2619 20.0932C46.326 20.8234 47.802 22.7917 47.802 25.1016L49.002 25.1016L50.202 25.1016C50.202 21.7426 48.0544 18.8891 45.0623 17.8306L44.6621 18.9619ZM49.002 25.1016L47.802 25.1015C47.8018 27.4278 46.3039 29.4067 44.2157 30.1239L44.6055 31.2588L44.9952 32.3937C48.0216 31.3544 50.2017 28.4857 50.202 25.1016L49.002 25.1016ZM44.6055 31.2588L43.4624 30.8936C41.5648 36.8343 36.8638 41.5238 30.9157 43.4036L31.2773 44.5479L31.639 45.6921C38.3306 43.5772 43.614 38.3064 45.7486 31.6239L44.6055 31.2588ZM31.2773 44.5479L30.1388 44.1688C29.4353 46.2814 27.4444 47.802 25.1006 47.802V49.002V50.202C28.5102 50.202 31.3964 47.9888 32.4159 44.927L31.2773 44.5479ZM25.1006 49.002L25.1006 47.802C22.7564 47.8018 20.7646 46.2813 20.0614 44.1688L18.9229 44.5479L17.7843 44.9269C18.8037 47.9893 21.6912 50.2018 25.1005 50.202L25.1006 49.002ZM18.9229 44.5479L19.2846 43.4037C13.3364 41.5233 8.63397 36.8335 6.73688 30.8928L5.59375 31.2578L4.45062 31.6229C6.58475 38.3058 11.8698 43.5767 18.5611 45.692L18.9229 44.5479ZM5.59375 31.2578L5.98397 30.123C3.89689 29.4053 2.4002 27.4266 2.4002 25.1006L1.2002 25.1006L0.000195265 25.1006C0.000195117 28.4836 2.17833 31.3523 5.20353 32.3926L5.59375 31.2578ZM1.2002 25.1006L2.4002 25.1006C2.40022 22.7912 3.87521 20.8237 5.93859 20.0931L5.53809 18.9619L5.13758 17.8307C2.14649 18.8897 0.000225928 21.7424 0.000195265 25.1006L1.2002 25.1006ZM5.53809 18.9619L6.68444 19.3167C8.55263 13.2803 13.3107 8.51059 19.3397 6.62477L18.9814 5.47949L18.6232 4.33421C11.8412 6.45558 6.49346 11.8162 4.39173 18.6071L5.53809 18.9619ZM18.9814 5.47949L20.1088 5.89077C20.8524 3.85257 22.8086 2.4003 25.1006 2.4002L25.1006 1.2002L25.1005 0.000195266C21.7687 0.00034808 18.9323 2.11281 17.8541 5.06821L18.9814 5.47949Z" fill="#2062C8" mask="url(#path-1-outside-1_2086_25013)"/>
<path d="M34.1136 28.8279C34.1136 33.6598 30.2071 37.5767 25.3883 37.5767C20.5695 37.5767 16.6631 33.6598 16.6631 28.8279C16.6631 23.9961 20.5695 20.0791 25.3883 20.0791C30.2071 20.0791 34.1136 23.9961 34.1136 28.8279Z" fill="black"/>
<path d="M35.6796 23.9223C35.6796 29.6215 31.072 34.2415 25.3881 34.2415C19.7043 34.2415 15.0967 29.6215 15.0967 23.9223C15.0967 18.2231 19.7043 13.603 25.3881 13.603C31.072 13.603 35.6796 18.2231 35.6796 23.9223Z" fill="#FD36D4"/>
<path fill-rule="evenodd" clip-rule="evenodd" d="M36.6389 23.9221C36.6389 30.1524 31.6018 35.2031 25.3883 35.2031C19.1748 35.2031 14.1377 30.1524 14.1377 23.9221C14.1377 17.6918 19.1748 12.6411 25.3883 12.6411C31.6018 12.6411 36.6389 17.6918 36.6389 23.9221ZM25.3883 34.2414C31.0721 34.2414 35.6798 29.6213 35.6798 23.9221C35.6798 18.2229 31.0721 13.6029 25.3883 13.6029C19.7045 13.6029 15.0968 18.2229 15.0968 23.9221C15.0968 29.6213 19.7045 34.2414 25.3883 34.2414Z" fill="black"/>
<mask id="mask0_2086_25013" style="mask-type:alpha" maskUnits="userSpaceOnUse" x="15" y="13" width="21" height="22">
<path d="M35.6796 23.9223C35.6796 29.6215 31.072 34.2415 25.3881 34.2415C19.7043 34.2415 15.0967 29.6215 15.0967 23.9223C15.0967 18.2231 19.7043 13.603 25.3881 13.603C31.072 13.603 35.6796 18.2231 35.6796 23.9223Z" fill="#FD36D4"/>
</mask>
<g mask="url(#mask0_2086_25013)">
<path d="M18.3059 25.1704L14.2891 28.2686L18.3059 34.632H32.0202L36.4887 28.2686L32.4481 25.1704H18.3059Z" fill="#E30EB8"/>
</g>
<path opacity="0.9" d="M19.8538 18.826C19.1332 19.5181 18.1683 19.6807 17.6986 19.189C17.229 18.6974 17.4325 17.7378 18.1532 17.0457C18.8738 16.3536 19.8387 16.191 20.3083 16.6826C20.778 17.1743 20.5745 18.1339 19.8538 18.826Z" fill="white"/>
<g filter="url(#filter1_d_2086_25013)">
<path d="M32.6773 24.037C32.6773 28.0737 29.4137 31.346 25.3879 31.346C21.3622 31.346 18.0986 28.0737 18.0986 24.037C18.0986 20.0004 21.3622 16.728 25.3879 16.728C29.4137 16.728 32.6773 20.0004 32.6773 24.037Z" fill="#770276"/>
</g>
<ellipse cx="35.2554" cy="30.0591" rx="2.14801" ry="2.25685" fill="black"/>
<mask id="path-11-outside-2_2086_25013" maskUnits="userSpaceOnUse" x="29.0791" y="24.6802" width="13" height="16" fill="black">
<rect fill="white" x="29.0791" y="24.6802" width="13" height="16"/>
<path d="M35.1982 25.6802C37.5797 25.6803 39.5107 27.7092 39.5107 30.2114C39.5107 30.2999 39.5077 30.3878 39.5029 30.4751L40.2393 30.4868C40.323 30.4881 40.3899 30.5574 40.3887 30.6411L40.3398 33.856C40.2967 36.6892 37.965 38.9516 35.1318 38.9087C32.2985 38.8656 30.036 36.533 30.0791 33.6997L30.1279 30.4849C30.1293 30.4012 30.1985 30.3342 30.2822 30.3354L30.8887 30.3442C30.8875 30.3001 30.8857 30.2559 30.8857 30.2114C30.8857 27.7093 32.8168 25.6803 35.1982 25.6802ZM35.2549 27.8022C34.0688 27.8025 33.1074 28.8128 33.1074 30.0591C33.1074 30.1676 33.1177 30.274 33.1318 30.3784L37.3701 30.4429C37.3905 30.318 37.4033 30.1901 37.4033 30.0591C37.4033 28.8127 36.4412 27.8022 35.2549 27.8022Z"/>
</mask>
<path d="M35.1982 25.6802C37.5797 25.6803 39.5107 27.7092 39.5107 30.2114C39.5107 30.2999 39.5077 30.3878 39.5029 30.4751L40.2393 30.4868C40.323 30.4881 40.3899 30.5574 40.3887 30.6411L40.3398 33.856C40.2967 36.6892 37.965 38.9516 35.1318 38.9087C32.2985 38.8656 30.036 36.533 30.0791 33.6997L30.1279 30.4849C30.1293 30.4012 30.1985 30.3342 30.2822 30.3354L30.8887 30.3442C30.8875 30.3001 30.8857 30.2559 30.8857 30.2114C30.8857 27.7093 32.8168 25.6803 35.1982 25.6802ZM35.2549 27.8022C34.0688 27.8025 33.1074 28.8128 33.1074 30.0591C33.1074 30.1676 33.1177 30.274 33.1318 30.3784L37.3701 30.4429C37.3905 30.318 37.4033 30.1901 37.4033 30.0591C37.4033 28.8127 36.4412 27.8022 35.2549 27.8022Z" fill="white"/>
<path d="M35.1982 25.6802L35.1983 24.8802L35.1982 24.8802L35.1982 25.6802ZM39.5107 30.2114L40.3107 30.2115V30.2114H39.5107ZM39.5029 30.4751L38.7041 30.4314C38.6922 30.6486 38.7693 30.8613 38.9176 31.0205C39.0659 31.1796 39.2727 31.2715 39.4902 31.275L39.5029 30.4751ZM40.2393 30.4868L40.2265 31.2867L40.2271 31.2867L40.2393 30.4868ZM40.3887 30.6411L41.1886 30.6533L41.1886 30.6525L40.3887 30.6411ZM40.3398 33.856L41.1398 33.8681L41.1398 33.8681L40.3398 33.856ZM35.1318 38.9087L35.1197 39.7086L35.1197 39.7086L35.1318 38.9087ZM30.0791 33.6997L30.879 33.7119L30.879 33.7119L30.0791 33.6997ZM30.1279 30.4849L29.328 30.4716L29.328 30.4727L30.1279 30.4849ZM30.2822 30.3354L30.2705 31.1354L30.2706 31.1354L30.2822 30.3354ZM30.8887 30.3442L30.8771 31.1442C31.0951 31.1473 31.3049 31.0614 31.458 30.9062C31.6112 30.7511 31.6944 30.5402 31.6884 30.3222L30.8887 30.3442ZM30.8857 30.2114L30.0857 30.2114L30.0857 30.2115L30.8857 30.2114ZM35.2549 27.8022L35.2549 27.0022L35.2547 27.0022L35.2549 27.8022ZM33.1074 30.0591L32.3074 30.0591V30.0591H33.1074ZM33.1318 30.3784L32.339 30.4854C32.3919 30.8777 32.7238 31.1723 33.1197 31.1783L33.1318 30.3784ZM37.3701 30.4429L37.358 31.2428C37.7546 31.2488 38.0957 30.9633 38.1597 30.5718L37.3701 30.4429ZM37.4033 30.0591L38.2033 30.0591L38.2033 30.0591L37.4033 30.0591ZM35.1982 25.6802L35.1982 26.4802C37.1011 26.4803 38.7107 28.1133 38.7107 30.2114H39.5107H40.3107C40.3107 27.3051 38.0584 24.8803 35.1983 24.8802L35.1982 25.6802ZM39.5107 30.2114L38.7107 30.2113C38.7107 30.2819 38.7083 30.3548 38.7041 30.4314L39.5029 30.4751L40.3017 30.5188C40.3071 30.4209 40.3107 30.318 40.3107 30.2115L39.5107 30.2114ZM39.5029 30.4751L39.4902 31.275L40.2265 31.2867L40.2393 30.4868L40.252 29.6869L39.5157 29.6752L39.5029 30.4751ZM40.2393 30.4868L40.2271 31.2867C39.8665 31.2812 39.5837 30.9846 39.5888 30.6297L40.3887 30.6411L41.1886 30.6525C41.196 30.1301 40.7795 29.6949 40.2514 29.6869L40.2393 30.4868ZM40.3887 30.6411L39.5888 30.629L39.5399 33.8438L40.3398 33.856L41.1398 33.8681L41.1886 30.6533L40.3887 30.6411ZM40.3398 33.856L39.5399 33.8438C39.5035 36.2353 37.5352 38.145 35.144 38.1088L35.1318 38.9087L35.1197 39.7086C38.3947 39.7582 41.0899 37.143 41.1398 33.8681L40.3398 33.856ZM35.1318 38.9087L35.144 38.1088C32.7525 38.0724 30.8426 36.1034 30.879 33.7119L30.0791 33.6997L29.2792 33.6875C29.2293 36.9626 31.8445 39.6587 35.1197 39.7086L35.1318 38.9087ZM30.0791 33.6997L30.879 33.7119L30.9278 30.497L30.1279 30.4849L29.328 30.4727L29.2792 33.6876L30.0791 33.6997ZM30.1279 30.4849L30.9278 30.4981C30.9219 30.8566 30.6271 31.1406 30.2705 31.1354L30.2822 30.3354L30.2939 29.5355C29.77 29.5279 29.3367 29.9458 29.328 30.4716L30.1279 30.4849ZM30.2822 30.3354L30.2706 31.1354L30.8771 31.1442L30.8887 30.3442L30.9003 29.5443L30.2938 29.5355L30.2822 30.3354ZM30.8887 30.3442L31.6884 30.3222C31.6868 30.2662 31.6857 30.2412 31.6857 30.2113L30.8857 30.2114L30.0857 30.2115C30.0857 30.2705 30.0881 30.334 30.089 30.3662L30.8887 30.3442ZM30.8857 30.2114H31.6857C31.6857 28.1134 33.2954 26.4803 35.1983 26.4802L35.1982 25.6802L35.1982 24.8802C32.3381 24.8804 30.0857 27.3052 30.0857 30.2114H30.8857ZM35.2549 27.8022L35.2547 27.0022C33.59 27.0026 32.3074 28.4088 32.3074 30.0591L33.1074 30.0591L33.9074 30.0591C33.9074 29.2168 34.5475 28.6024 35.255 28.6022L35.2549 27.8022ZM33.1074 30.0591H32.3074C32.3074 30.2171 32.3224 30.3623 32.339 30.4854L33.1318 30.3784L33.9247 30.2715C33.9131 30.1856 33.9074 30.1181 33.9074 30.0591H33.1074ZM33.1318 30.3784L33.1197 31.1783L37.358 31.2428L37.3701 30.4429L37.3823 29.643L33.144 29.5785L33.1318 30.3784ZM37.3701 30.4429L38.1597 30.5718C38.1854 30.4141 38.2033 30.2421 38.2033 30.0591H37.4033H36.6033C36.6033 30.138 36.5956 30.222 36.5806 30.3139L37.3701 30.4429ZM37.4033 30.0591L38.2033 30.0591C38.2033 28.4083 36.9196 27.0022 35.2549 27.0022V27.8022V28.6022C35.9628 28.6022 36.6033 29.217 36.6033 30.0591L37.4033 30.0591Z" fill="black" mask="url(#path-11-outside-2_2086_25013)"/>
<path d="M35.0791 31.9468C35.9432 31.9468 36.6435 32.6472 36.6436 33.5112C36.6436 33.9801 36.4361 34.3993 36.1094 34.686L36.2393 36.5063L33.5469 36.3403L33.8574 34.4878C33.6432 34.2201 33.5146 33.8807 33.5146 33.5112C33.5147 32.6473 34.2151 31.9469 35.0791 31.9468Z" fill="black"/>
<defs>
<filter id="filter0_i_2086_25013" x="0" y="0" width="50.2021" height="50.2021" filterUnits="userSpaceOnUse" color-interpolation-filters="sRGB">
<feFlood flood-opacity="0" result="BackgroundImageFix"/>
<feBlend mode="normal" in="SourceGraphic" in2="BackgroundImageFix" result="shape"/>
<feColorMatrix in="SourceAlpha" type="matrix" values="0 0 0 0 0 0 0 0 0 0 0 0 0 0 0 0 0 0 127 0" result="hardAlpha"/>
<feOffset dy="4.8"/>
<feComposite in2="hardAlpha" operator="arithmetic" k2="-1" k3="1"/>
<feColorMatrix type="matrix" values="0 0 0 0 0.14902 0 0 0 0 0.137255 0 0 0 0 0.262745 0 0 0 1 0"/>
<feBlend mode="normal" in2="shape" result="effect1_innerShadow_2086_25013"/>
</filter>
<filter id="filter1_d_2086_25013" x="18.0986" y="16.728" width="14.5791" height="15.6182" filterUnits="userSpaceOnUse" color-interpolation-filters="sRGB">
<feFlood flood-opacity="0" result="BackgroundImageFix"/>
<feColorMatrix in="SourceAlpha" type="matrix" values="0 0 0 0 0 0 0 0 0 0 0 0 0 0 0 0 0 0 127 0" result="hardAlpha"/>
<feOffset dy="1"/>
<feComposite in2="hardAlpha" operator="out"/>
<feColorMatrix type="matrix" values="0 0 0 0 0.921569 0 0 0 0 0.34902 0 0 0 0 0.811765 0 0 0 1 0"/>
<feBlend mode="normal" in2="BackgroundImageFix" result="effect1_dropShadow_2086_25013"/>
<feBlend mode="normal" in="SourceGraphic" in2="effect1_dropShadow_2086_25013" result="shape"/>
</filter>
</defs>
</svg>
