<svg width="51" height="60" viewBox="0 0 51 60" fill="none" xmlns="http://www.w3.org/2000/svg">
<g filter="url(#filter0_i_2086_25044)">
<path d="M22.0955 13.3647L30.3796 1.74609C66.2315 31.3969 44.7281 62.7231 20.5883 57.9727C3.58901 54.6275 -11.2256 30.8694 17.1456 5.25234L22.0955 13.3647Z" fill="#322E56"/>
</g>
<path d="M30.7617 1.28418C48.8086 16.2096 52.5709 31.7011 48.5459 42.9619C44.5328 54.1892 32.8301 60.9932 20.4727 58.5615C11.7586 56.8467 3.60992 49.9072 1.26953 40.1035C-1.079 30.2653 2.45131 17.7111 16.7432 4.80664L17.2812 4.32227L17.6582 4.93945L22.1338 12.2754L29.8906 1.39746L30.2656 0.873047L30.7617 1.28418Z" stroke="#2062C8" stroke-width="1.2"/>
<path d="M33.3733 38.5594C33.3733 43.3912 29.4669 47.3082 24.6481 47.3082C19.8293 47.3082 15.9229 43.3912 15.9229 38.5594C15.9229 33.7275 19.8293 29.8105 24.6481 29.8105C29.4669 29.8105 33.3733 33.7275 33.3733 38.5594Z" fill="black"/>
<path d="M34.9394 33.6537C34.9394 39.3529 30.3317 43.973 24.6479 43.973C18.9641 43.973 14.3564 39.3529 14.3564 33.6537C14.3564 27.9546 18.9641 23.3345 24.6479 23.3345C30.3317 23.3345 34.9394 27.9546 34.9394 33.6537Z" fill="#FD36D4"/>
<path fill-rule="evenodd" clip-rule="evenodd" d="M35.8987 33.6536C35.8987 39.8839 30.8616 44.9346 24.6481 44.9346C18.4345 44.9346 13.3975 39.8839 13.3975 33.6536C13.3975 27.4232 18.4345 22.3726 24.6481 22.3726C30.8616 22.3726 35.8987 27.4232 35.8987 33.6536ZM24.6481 43.9728C30.3319 43.9728 34.9395 39.3527 34.9395 33.6536C34.9395 27.9544 30.3319 23.3343 24.6481 23.3343C18.9643 23.3343 14.3566 27.9544 14.3566 33.6536C14.3566 39.3527 18.9643 43.9728 24.6481 43.9728Z" fill="black"/>
<mask id="mask0_2086_25044" style="mask-type:alpha" maskUnits="userSpaceOnUse" x="14" y="23" width="21" height="21">
<path d="M34.9394 33.6537C34.9394 39.3529 30.3317 43.973 24.6479 43.973C18.9641 43.973 14.3564 39.3529 14.3564 33.6537C14.3564 27.9546 18.9641 23.3345 24.6479 23.3345C30.3317 23.3345 34.9394 27.9546 34.9394 33.6537Z" fill="#FD36D4"/>
</mask>
<g mask="url(#mask0_2086_25044)">
<path d="M17.5656 34.9019L13.5488 38L17.5656 44.3634H31.28L35.7484 38L31.7078 34.9019H17.5656Z" fill="#E30EB8"/>
</g>
<path opacity="0.9" d="M19.1136 28.5574C18.3929 29.2496 17.428 29.4121 16.9584 28.9205C16.4888 28.4289 16.6923 27.4692 17.4129 26.7771C18.1336 26.085 19.0985 25.9225 19.5681 26.4141C20.0377 26.9057 19.8342 27.8653 19.1136 28.5574Z" fill="white"/>
<g filter="url(#filter1_d_2086_25044)">
<path d="M31.937 33.7685C31.937 37.8051 28.6735 41.0775 24.6477 41.0775C20.6219 41.0775 17.3584 37.8051 17.3584 33.7685C17.3584 29.7318 20.6219 26.4595 24.6477 26.4595C28.6735 26.4595 31.937 29.7318 31.937 33.7685Z" fill="#770276"/>
</g>
<ellipse cx="34.5152" cy="39.7905" rx="2.14801" ry="2.25685" fill="black"/>
<mask id="path-11-outside-1_2086_25044" maskUnits="userSpaceOnUse" x="28.3389" y="34.4116" width="13" height="16" fill="black">
<rect fill="white" x="28.3389" y="34.4116" width="13" height="16"/>
<path d="M34.458 35.4116C36.8395 35.4118 38.7705 37.4407 38.7705 39.9429C38.7705 40.0314 38.7675 40.1193 38.7627 40.2065L39.499 40.2183C39.5828 40.2195 39.6496 40.2888 39.6484 40.3726L39.5996 43.5874C39.5565 46.4206 37.2248 48.683 34.3916 48.6401C31.5583 48.597 29.2957 46.2645 29.3389 43.4312L29.3877 40.2163C29.3891 40.1326 29.4583 40.0657 29.542 40.0669L30.1484 40.0757C30.1472 40.0316 30.1455 39.9873 30.1455 39.9429C30.1455 37.4407 32.0765 35.4118 34.458 35.4116ZM34.5146 37.5337C33.3285 37.5339 32.3672 38.5443 32.3672 39.7905C32.3672 39.8991 32.3775 40.0054 32.3916 40.1099L36.6299 40.1743C36.6503 40.0495 36.6631 39.9215 36.6631 39.7905C36.6631 38.5441 35.701 37.5337 34.5146 37.5337Z"/>
</mask>
<path d="M34.458 35.4116C36.8395 35.4118 38.7705 37.4407 38.7705 39.9429C38.7705 40.0314 38.7675 40.1193 38.7627 40.2065L39.499 40.2183C39.5828 40.2195 39.6496 40.2888 39.6484 40.3726L39.5996 43.5874C39.5565 46.4206 37.2248 48.683 34.3916 48.6401C31.5583 48.597 29.2957 46.2645 29.3389 43.4312L29.3877 40.2163C29.3891 40.1326 29.4583 40.0657 29.542 40.0669L30.1484 40.0757C30.1472 40.0316 30.1455 39.9873 30.1455 39.9429C30.1455 37.4407 32.0765 35.4118 34.458 35.4116ZM34.5146 37.5337C33.3285 37.5339 32.3672 38.5443 32.3672 39.7905C32.3672 39.8991 32.3775 40.0054 32.3916 40.1099L36.6299 40.1743C36.6503 40.0495 36.6631 39.9215 36.6631 39.7905C36.6631 38.5441 35.701 37.5337 34.5146 37.5337Z" fill="white"/>
<path d="M34.458 35.4116L34.4581 34.6116L34.458 34.6116L34.458 35.4116ZM38.7705 39.9429L39.5705 39.943V39.9429H38.7705ZM38.7627 40.2065L37.9639 40.1628C37.952 40.38 38.0291 40.5927 38.1774 40.7519C38.3257 40.9111 38.5324 41.003 38.75 41.0064L38.7627 40.2065ZM39.499 40.2183L39.4863 41.0182L39.4868 41.0182L39.499 40.2183ZM39.6484 40.3726L40.4483 40.3847L40.4484 40.384L39.6484 40.3726ZM39.5996 43.5874L40.3995 43.5996L40.3995 43.5996L39.5996 43.5874ZM34.3916 48.6401L34.3794 49.44L34.3795 49.44L34.3916 48.6401ZM29.3389 43.4312L30.1388 43.4433L30.1388 43.4433L29.3389 43.4312ZM29.3877 40.2163L28.5878 40.2031L28.5878 40.2042L29.3877 40.2163ZM29.542 40.0669L29.5303 40.8668L29.5304 40.8668L29.542 40.0669ZM30.1484 40.0757L30.1368 40.8756C30.3548 40.8788 30.5646 40.7928 30.7178 40.6377C30.8709 40.4825 30.9541 40.2716 30.9481 40.0537L30.1484 40.0757ZM30.1455 39.9429L29.3455 39.9429L29.3455 39.943L30.1455 39.9429ZM34.5146 37.5337L34.5146 36.7337L34.5145 36.7337L34.5146 37.5337ZM32.3672 39.7905L31.5672 39.7905V39.7905H32.3672ZM32.3916 40.1099L31.5988 40.2168C31.6517 40.6091 31.9836 40.9038 32.3794 40.9098L32.3916 40.1099ZM36.6299 40.1743L36.6177 40.9742C37.0143 40.9803 37.3555 40.6947 37.4194 40.3032L36.6299 40.1743ZM36.6631 39.7905L37.4631 39.7905L37.4631 39.7905L36.6631 39.7905ZM34.458 35.4116L34.458 36.2116C36.3609 36.2117 37.9705 37.8448 37.9705 39.9429H38.7705H39.5705C39.5705 37.0366 37.3182 34.6118 34.4581 34.6116L34.458 35.4116ZM38.7705 39.9429L37.9705 39.9428C37.9705 40.0133 37.9681 40.0862 37.9639 40.1628L38.7627 40.2065L39.5615 40.2503C39.5669 40.1523 39.5705 40.0495 39.5705 39.943L38.7705 39.9429ZM38.7627 40.2065L38.75 41.0064L39.4863 41.0182L39.499 40.2183L39.5118 39.4184L38.7754 39.4066L38.7627 40.2065ZM39.499 40.2183L39.4868 41.0182C39.1263 41.0127 38.8435 40.7161 38.8485 40.3611L39.6484 40.3726L40.4484 40.384C40.4558 39.8616 40.0393 39.4264 39.5112 39.4184L39.499 40.2183ZM39.6484 40.3726L38.8485 40.3604L38.7997 43.5753L39.5996 43.5874L40.3995 43.5996L40.4483 40.3847L39.6484 40.3726ZM39.5996 43.5874L38.7997 43.5752C38.7633 45.9668 36.795 47.8764 34.4037 47.8402L34.3916 48.6401L34.3795 49.44C37.6545 49.4897 40.3497 46.8744 40.3995 43.5996L39.5996 43.5874ZM34.3916 48.6401L34.4038 47.8402C32.0122 47.8038 30.1024 45.8349 30.1388 43.4433L29.3389 43.4312L28.539 43.419C28.4891 46.6941 31.1043 49.3902 34.3794 49.44L34.3916 48.6401ZM29.3389 43.4312L30.1388 43.4433L30.1876 40.2285L29.3877 40.2163L28.5878 40.2042L28.539 43.419L29.3389 43.4312ZM29.3877 40.2163L30.1876 40.2296C30.1817 40.588 29.8868 40.872 29.5303 40.8668L29.542 40.0669L29.5537 39.267C29.0298 39.2593 28.5965 39.6773 28.5878 40.2031L29.3877 40.2163ZM29.542 40.0669L29.5304 40.8668L30.1368 40.8756L30.1484 40.0757L30.16 39.2758L29.5536 39.267L29.542 40.0669ZM30.1484 40.0757L30.9481 40.0537C30.9466 39.9977 30.9455 39.9727 30.9455 39.9428L30.1455 39.9429L29.3455 39.943C29.3455 40.0019 29.3479 40.0655 29.3487 40.0977L30.1484 40.0757ZM30.1455 39.9429H30.9455C30.9455 37.8448 32.5552 36.2118 34.4581 36.2116L34.458 35.4116L34.458 34.6116C31.5979 34.6118 29.3455 37.0366 29.3455 39.9429H30.1455ZM34.5146 37.5337L34.5145 36.7337C32.8498 36.734 31.5672 38.1403 31.5672 39.7905L32.3672 39.7905L33.1672 39.7905C33.1672 38.9483 33.8073 38.3338 34.5148 38.3337L34.5146 37.5337ZM32.3672 39.7905H31.5672C31.5672 39.9485 31.5822 40.0938 31.5988 40.2168L32.3916 40.1099L33.1844 40.0029C33.1728 39.9171 33.1672 39.8496 33.1672 39.7905H32.3672ZM32.3916 40.1099L32.3794 40.9098L36.6177 40.9742L36.6299 40.1743L36.642 39.3744L32.4038 39.31L32.3916 40.1099ZM36.6299 40.1743L37.4194 40.3032C37.4452 40.1455 37.4631 39.9735 37.4631 39.7905H36.6631H35.8631C35.8631 39.8695 35.8554 39.9534 35.8403 40.0454L36.6299 40.1743ZM36.6631 39.7905L37.4631 39.7905C37.4631 38.1398 36.1794 36.7337 34.5146 36.7337V37.5337V38.3337C35.2225 38.3337 35.8631 38.9484 35.8631 39.7905L36.6631 39.7905Z" fill="black" mask="url(#path-11-outside-1_2086_25044)"/>
<path d="M34.3389 41.6782C35.2029 41.6782 35.9032 42.3786 35.9033 43.2427C35.9033 43.7116 35.6959 44.1307 35.3691 44.4175L35.499 46.2378L32.8066 46.0718L33.1172 44.2192C32.903 43.9515 32.7744 43.6122 32.7744 43.2427C32.7745 42.3787 33.4749 41.6783 34.3389 41.6782Z" fill="black"/>
<defs>
<filter id="filter0_i_2086_25044" x="0" y="0" width="50.6104" height="59.6533" filterUnits="userSpaceOnUse" color-interpolation-filters="sRGB">
<feFlood flood-opacity="0" result="BackgroundImageFix"/>
<feBlend mode="normal" in="SourceGraphic" in2="BackgroundImageFix" result="shape"/>
<feColorMatrix in="SourceAlpha" type="matrix" values="0 0 0 0 0 0 0 0 0 0 0 0 0 0 0 0 0 0 127 0" result="hardAlpha"/>
<feOffset dy="5"/>
<feComposite in2="hardAlpha" operator="arithmetic" k2="-1" k3="1"/>
<feColorMatrix type="matrix" values="0 0 0 0 0.14902 0 0 0 0 0.137255 0 0 0 0 0.262745 0 0 0 1 0"/>
<feBlend mode="normal" in2="shape" result="effect1_innerShadow_2086_25044"/>
</filter>
<filter id="filter1_d_2086_25044" x="17.3584" y="26.4595" width="14.5791" height="15.6182" filterUnits="userSpaceOnUse" color-interpolation-filters="sRGB">
<feFlood flood-opacity="0" result="BackgroundImageFix"/>
<feColorMatrix in="SourceAlpha" type="matrix" values="0 0 0 0 0 0 0 0 0 0 0 0 0 0 0 0 0 0 127 0" result="hardAlpha"/>
<feOffset dy="1"/>
<feComposite in2="hardAlpha" operator="out"/>
<feColorMatrix type="matrix" values="0 0 0 0 0.921569 0 0 0 0 0.34902 0 0 0 0 0.811765 0 0 0 1 0"/>
<feBlend mode="normal" in2="BackgroundImageFix" result="effect1_dropShadow_2086_25044"/>
<feBlend mode="normal" in="SourceGraphic" in2="effect1_dropShadow_2086_25044" result="shape"/>
</filter>
</defs>
</svg>
